<svg width="13" height="8" viewBox="0 0 13 8" fill="none" xmlns="http://www.w3.org/2000/svg">
<path fill-rule="evenodd" clip-rule="evenodd" d="M5.22647 4.00483L5.22748 4.2409C5.23559 5.17722 5.29203 6.0126 5.38937 6.54201C5.38937 6.55156 5.49556 7.07662 5.56319 7.25139C5.66937 7.50401 5.86137 7.71844 6.10209 7.85429C6.29482 7.95123 6.497 8.00043 6.70863 8.00043C6.87499 7.99272 7.14935 7.909 7.34517 7.83881L7.50789 7.77645C8.5857 7.34833 10.646 5.94939 11.4351 5.09387L11.4933 5.03407L11.7529 4.75387C11.9166 4.53944 12.0031 4.27728 12.0031 3.99529C12.0031 3.74267 11.926 3.49005 11.7718 3.28591C11.7257 3.21977 11.6513 3.13491 11.5852 3.06322L11.3324 2.79869C10.4628 1.91757 8.57988 0.681648 7.60389 0.272136C7.60389 0.263324 6.99736 0.00997379 6.70863 0.000427246L6.67009 0.000427246C6.22718 0.000427246 5.81337 0.253043 5.60174 0.661342C5.54392 0.772963 5.48846 0.991615 5.44628 1.18365L5.37047 1.54623C5.28392 2.12931 5.22647 3.02374 5.22647 4.00483ZM1.00528 2.9882C0.451835 2.9882 0.00311279 3.44129 0.00311279 4.00013C0.00311279 4.55897 0.451835 5.01207 1.00528 5.01207L3.47143 4.79396C3.90561 4.79396 4.25761 4.43927 4.25761 4.00013C4.25761 3.56173 3.90561 3.2063 3.47143 3.2063L1.00528 2.9882Z" fill="#808191"/>
</svg>
