<svg width="17" height="16" viewBox="0 0 17 16" fill="none" xmlns="http://www.w3.org/2000/svg">
<path fill-rule="evenodd" clip-rule="evenodd" d="M11.8461 5.58768L14.6669 5.58768C14.6669 3.32288 13.3099 1.99982 11.0106 1.99982L4.98985 1.99982C2.69059 1.99982 1.33356 3.32288 1.33356 5.5588V10.4408C1.33356 12.6768 2.69059 13.9998 4.98985 13.9998L11.0106 13.9998C13.3099 13.9998 14.6669 12.6768 14.6669 10.4408V10.2328L11.8461 10.2328C10.537 10.2328 9.47578 9.19816 9.47578 7.92182C9.47578 6.64548 10.537 5.61079 11.8461 5.61079V5.58768ZM11.8449 6.58145L14.1679 6.58145C14.4428 6.58145 14.6656 6.79873 14.6656 7.06677V8.75382C14.6624 9.02055 14.4414 9.23601 14.1679 9.23913L11.8982 9.23913C11.2355 9.24783 10.656 8.80543 10.5056 8.17606C10.4304 7.78537 10.536 7.38222 10.7944 7.07465C11.0527 6.76709 11.4372 6.58656 11.8449 6.58145ZM11.9486 8.35524H12.1679C12.4493 8.35524 12.6775 8.13278 12.6775 7.85837C12.6775 7.58396 12.4493 7.3615 12.1679 7.3615H11.9486C11.814 7.35996 11.6844 7.41101 11.5886 7.50328C11.4929 7.59555 11.439 7.72134 11.439 7.85259C11.439 8.12796 11.6662 8.35208 11.9486 8.35524ZM4.49307 5.58806L8.25603 5.58806C8.53749 5.58806 8.76566 5.3656 8.76566 5.09119C8.76566 4.81677 8.53749 4.59432 8.25603 4.59432L4.49307 4.59432C4.21391 4.5943 3.98668 4.81325 3.98344 5.08541C3.98342 5.36077 4.21065 5.58489 4.49307 5.58806Z" fill="#808191"/>
</svg>
