<svg width="17" height="16" viewBox="0 0 17 16" fill="none" xmlns="http://www.w3.org/2000/svg">
<path fill-rule="evenodd" clip-rule="evenodd" d="M8.10546 11.094L9.99985 9.18071C10.1913 8.98071 10.1913 8.66738 9.99325 8.47404C9.80183 8.28071 9.4916 8.28071 9.30018 8.47404L8.25067 9.54071V6.32738C8.25067 6.04738 8.03285 5.82738 7.76222 5.82738C7.4916 5.82738 7.26717 6.04738 7.26717 6.32738V9.54071L6.21767 8.47404C6.02625 8.28071 5.71602 8.28071 5.5246 8.47404C5.33318 8.66738 5.33318 8.98071 5.5246 9.18071L7.41239 11.094C7.45859 11.1407 7.5114 11.174 7.5708 11.2007C7.63021 11.2274 7.69622 11.2407 7.76222 11.2407C7.82823 11.2407 7.88764 11.2274 7.94704 11.2007C8.00645 11.174 8.05925 11.1407 8.10546 11.094ZM12.8885 6.01779C13.0437 6.016 13.2126 6.01405 13.3661 6.01405C13.5377 6.01405 13.6698 6.14738 13.6698 6.31404V11.674C13.6698 13.3274 12.3364 14.6674 10.6995 14.6674L5.45194 14.6674C3.72917 14.6674 2.33643 13.2607 2.33643 11.5274V4.34071C2.33643 2.68738 3.66316 1.33405 5.31332 1.33405L8.83808 1.33405C9.00309 1.33405 9.14171 1.47405 9.14171 1.64071V3.78738C9.14171 5.00738 10.1318 6.00738 11.3463 6.01405C11.6253 6.01405 11.8749 6.01616 12.0928 6.01801C12.2616 6.01944 12.4114 6.02071 12.541 6.02071C12.635 6.02071 12.7568 6.01931 12.8885 6.01779ZM13.0728 5.04478C12.5309 5.04678 11.8913 5.04478 11.4313 5.04012C10.7012 5.04012 10.0999 4.43278 10.0999 3.69545V1.93812C10.0999 1.65078 10.4451 1.50812 10.6418 1.71545C11.1503 2.249 11.9289 3.06681 12.5868 3.75781C12.8529 4.03727 13.0992 4.29599 13.2999 4.50678C13.4926 4.70878 13.3514 5.04412 13.0728 5.04478Z" fill="#808191"/>
</svg>
