<svg width="14" height="14" viewBox="0 0 14 14" fill="none" xmlns="http://www.w3.org/2000/svg">
<path d="M6.48696 3.86049V1.18781C6.48696 0.903629 6.71362 0.666809 7.00029 0.666809C7.25696 0.666809 7.47441 0.865803 7.50887 1.11786L7.51362 1.18781V3.86049L10.7002 3.86069C12.2869 3.86069 13.5905 5.16 13.6636 6.78042L13.6669 6.9242V10.2837C13.6669 11.9155 12.4087 13.2549 10.8456 13.3301L10.7069 13.3335L3.29356 13.3335C1.70689 13.3335 0.409617 12.0407 0.336782 10.4143L0.333557 10.27L0.333557 6.91732C0.333557 5.28555 1.5855 3.93962 3.14822 3.86404L3.28689 3.86069L6.48689 3.86069V8.12895L5.42022 7.02747C5.22022 6.82094 4.89356 6.82094 4.69356 7.02747C4.59356 7.13073 4.54689 7.26842 4.54689 7.4061C4.54689 7.51075 4.57676 7.61979 4.6399 7.7121L4.69356 7.77785L6.63356 9.78807C6.72689 9.89133 6.86022 9.94641 7.00022 9.94641C7.11133 9.94641 7.22245 9.90816 7.31041 9.83565L7.36022 9.78807L9.30022 7.77785C9.50022 7.57133 9.50022 7.234 9.30022 7.02747C9.11841 6.83971 8.8319 6.82265 8.63105 6.97626L8.57356 7.02747L7.51356 8.12895V3.86069L6.48696 3.86049Z" fill="#808191"/>
</svg>
